<?xml version="1.0" encoding="UTF-8"?>
<svg id="Layer_1" data-name="Layer 1" xmlns="http://www.w3.org/2000/svg" xmlns:xlink="http://www.w3.org/1999/xlink" version="1.1" viewBox="0 0 169.7 172.5">
  <defs>
    <style>
      .cls-1 {
        fill: #4697a1;
      }

      .cls-1, .cls-2, .cls-3, .cls-4, .cls-5 {
        stroke-width: 0px;
      }

      .cls-6 {
        clip-path: url(#clippath);
      }

      .cls-2, .cls-7 {
        fill: none;
      }

      .cls-8 {
        stroke: #fff;
        stroke-width: .2px;
      }

      .cls-8, .cls-7 {
        stroke-miterlimit: 10;
      }

      .cls-8, .cls-5 {
        fill: #fff;
      }

      .cls-9 {
        opacity: .7;
      }

      .cls-10 {
        opacity: .7;
      }

      .cls-3 {
        fill: #cf9738;
      }

      .cls-7 {
        display: none;
        stroke: #ec008c;
      }

      .cls-4 {
        fill: #bc5935;
      }
    </style>
    <clipPath id="clippath">
      <path class="cls-2" d="M85.2,159.6l-64-36.1V49.6L84.8,12.8l63.6,36.9v73.5l-63.3,36.4Z"/>
    </clipPath>
  </defs>
  <path class="cls-7" d="M85.2,159.6L21.2,123.7V49.3L84.8,12.9l63.6,36.7v73.7l-63.3,36.3Z"/>
  <g>
    <g class="cls-6">
      <g>
        <path class="cls-4" d="M105.9,67.3c3.8,21.7-5.1,42.7-21.2,55.6,7.7,28.8,36.2,47.5,66.2,42.3,31.7-5.5,53-35.6,47.5-67.3-5.5-31.7-35.6-53-67.3-47.5-10,1.7-18.9,5.9-26.3,11.8.5,1.7.8,3.4,1.2,5.2Z"/>
        <path class="cls-1" d="M78.3,82.9c8.6-20.3,27.3-33.2,47.8-35.3,9.1-28.4-4.9-59.5-32.9-71.3-29.6-12.5-63.8,1.4-76.3,31-12.5,29.6,1.4,63.8,31,76.3,9.3,3.9,19.1,5.3,28.5,4.3.5-1.7,1.1-3.4,1.8-5Z"/>
        <path class="cls-1" d="M16.3,71.4c22.1.6,48.7-1.6,58.1,16.8,29.7-1.9,57.7-25.8,58.5-56.1.8-32.2-28.6-59.4-60.8-60.2C39.8-29,13.1-3.6,12.3,28.5c-.3,10.1,2.2,42.8,4,42.9Z"/>
        <path class="cls-1" d="M98.9,119.5c.5-10.1-1.7-19.7-5.8-28.2,0,0-.1,0-.2,0-7.3-14.8-20.7-26.4-37.9-30.8-5.7-1.4-11.4-2-16.9-1.7,0,0,0,0,0,0-53.3-1.1-56.7,21.3-54.8,49.1,0,0,0,0-.1,0-4.7,29.4,13.7,58.1,43.1,65.6,14.9,3.8,29.9,1.5,42.4-5.4,0,0,0,0,0,0,.8-.4,1.5-.8,2.2-1.3.2-.1.4-.2.5-.3.6-.4,1.2-.7,1.7-1.1.3-.2.6-.4.9-.6.4-.3.9-.6,1.3-.9.4-.3.8-.6,1.2-1,.3-.2.6-.5.9-.7.5-.4,1-.9,1.6-1.3.2-.1.3-.3.5-.4.6-.6,1.3-1.2,1.9-1.8,0,0,0,0,0,0,.9-.9,1.7-1.8,2.5-2.7,0,0,.2-.2.3-.3,8.6-9.6,14.1-22.2,14.7-36.1Z"/>
        <path class="cls-4" d="M109.7,128.2c.5-10.1-1.7-19.7-5.8-28.2,0,0-.1,0-.2,0-7.3-14.8-20.7-26.4-37.9-30.8-5.7-1.4-11.4-2-16.9-1.7,0,0,0,0,0,0-27.6,1.3-50.6,21.9-54.8,49.1,0,0,0,0-.1,0-4.7,29.4,13.7,58.1,43.1,65.6,14.9,3.8,29.9,1.5,42.4-5.4,0,0,0,0,0,0,.8-.4,1.5-.8,2.2-1.3.2-.1.4-.2.5-.3.6-.4,1.2-.7,1.7-1.1.3-.2.6-.4.9-.6.4-.3.9-.6,1.3-.9.4-.3.8-.6,1.2-1,.3-.2.6-.5.9-.7.5-.4,1-.9,1.6-1.3.2-.1.3-.3.5-.4.6-.6,1.3-1.2,1.9-1.8,0,0,0,0,0,0,.9-.9,1.7-1.8,2.5-2.7,0,0,.2-.2.3-.3,8.6-9.6,14.1-22.2,14.7-36.1Z"/>
        <path class="cls-3" d="M104,60.2c6.4,21.1.2,43-14.2,57.7,11.2,27.6,41.8,42.6,70.9,33.8,30.8-9.3,48.2-41.9,38.8-72.7-9.3-30.8-41.9-48.2-72.7-38.8-9.7,2.9-18,8.2-24.6,14.9.7,1.6,1.3,3.3,1.8,5Z"/>
        <path class="cls-3" d="M160.8,45.2c-16.8,14.3-39.4,17.3-58.6,10-20.9,21.3-22.5,55.3-2.8,78.5,20.8,24.5,57.6,27.5,82.1,6.7,24.5-20.8,27.5-57.6,6.7-82.1-6.5-7.7-14.7-13.3-23.5-16.7-1.2,1.3-2.5,2.5-3.9,3.6Z"/>
      </g>
      <g class="cls-9">
        <g>
          <path class="cls-5" d="M66.7,67.6c-2.4,0-4.3-2-4.3-4.3s.5-2.4,1.4-3.2v-14.2c0-1.6,1.3-2.9,2.9-2.9s2.9,1.3,2.9,2.9v14.2c.9.8,1.4,2,1.4,3.2,0,2.4-2,4.3-4.3,4.3ZM66.7,44.4c-.8,0-1.4.7-1.4,1.4v14.5c0,.2-.1.4-.3.6-.7.6-1.2,1.4-1.2,2.3,0,1.6,1.3,2.9,2.9,2.9s2.9-1.3,2.9-2.9-.4-1.7-1.2-2.3c-.2-.1-.3-.4-.3-.6v-14.5c0-.8-.7-1.4-1.4-1.4Z"/>
          <path class="cls-5" d="M66.7,65.5c-1.2,0-2.2-1-2.2-2.2s1-2.2,2.2-2.2,2.2,1,2.2,2.2-1,2.2-2.2,2.2ZM66.7,62.6c-.4,0-.7.3-.7.7s.3.7.7.7.7-.3.7-.7-.3-.7-.7-.7Z"/>
          <path class="cls-5" d="M66.7,62.6c-.4,0-.7-.3-.7-.7v-15.2c0-.4.3-.7.7-.7s.7.3.7.7v15.2c0,.4-.3.7-.7.7Z"/>
        </g>
        <g>
          <path class="cls-5" d="M76.9,64c-1.3,0-2.5-.1-3.8-.4-.4,0-.6-.5-.6-.9,0-.4.5-.6.9-.6,1.1.3,2.3.4,3.5.4,8.8,0,15.9-7.2,15.9-15.9s-7.2-15.9-15.9-15.9-15.9,7.2-15.9,15.9.5,4.8,1.6,6.9c.2.4,0,.8-.3,1-.4.2-.8,0-1-.3-1.1-2.4-1.7-4.9-1.7-7.6,0-9.6,7.8-17.4,17.4-17.4s17.4,7.8,17.4,17.4-7.8,17.4-17.4,17.4Z"/>
          <path class="cls-5" d="M91.4,46.3c-.3,0-.7,0-1-.3-.5-.3-.8-.9-.8-1.5v-.3l-.3-.7c-.5-1-.7-2.2-.4-3.2l.7-3.6c0-.4.5-.6.9-.6.4,0,.6.5.6.9l-.7,3.6c-.2.8,0,1.6.3,2.3l.4.8c0,.1,0,.2,0,.3v.5c0,.2.1.3.2.3,0,0,.2,0,.3,0l1.6-.7c.4-.2.8,0,1,.4.2.4,0,.8-.4,1l-1.6.7c-.2,0-.5.1-.7.1Z"/>
          <path class="cls-5" d="M75.3,44.7c-.1,0-.3,0-.4-.1l-2-1.3c-.7-.5-1.5-.7-2.3-.7-1.4,0-2.5-.9-2.9-2.2h0c-1-.4-1.7-1.4-1.7-2.5s.4-1.5,1-2l.7-.6c.3-.2.4-.5.4-.8v-2.3c0-.4.3-.7.7-.7s.7.3.7.7v2.3c0,.8-.4,1.5-1,2l-.7.6c-.3.2-.4.5-.4.8s.3.8.7,1h.4c.2.2.4.4.5.6v.5c.3.7.9,1.1,1.6,1.1s1.6.2,2.4.5c0-.5-.5-.9-1-1l-1.1-.2c-.2,0-.4-.2-.5-.3-.1-.2-.1-.4,0-.6l.5-2.2c0-.3.4-.5.7-.5h2.7c.3,0,.5.1.6.4,0,0,.1.2.4.5-.5-.8-.4-1.8.3-2.4.4-.4.9-.6,1.4-.6h1.6c.2,0,.4-.2.4-.4v-1.1c0-.4.3-.7.7-.7h1.4c1.1,0,2.1-.2,3-.7l.6-.3c.4-.2.8,0,1,.3.2.4,0,.8-.3,1l-.6.3c-1.1.6-2.4.9-3.7.9h-.7v.4c0,1-.8,1.8-1.8,1.8h-1.6c-.1,0-.3,0-.4.1-.2.2-.2.4,0,.6l1.6,2.4c.2.2.2.6,0,.8-.2.2-.4.4-.7.3-1.9-.3-3-1.5-3.5-2.1h-1.7l-.2.9h.4c1.2.3,2,1.3,2.1,2.5l1.5,2c.2.3.2.7,0,.9-.1.1-.3.2-.5.2Z"/>
          <path class="cls-5" d="M79.6,61.9c-.1,0-.2,0-.3,0-1.6-.8-2.6-2.4-2.6-4.1v-.3c0-.4,0-.8.1-1.1l.8-3.1c-1.1-.3-1.9-1.3-2-2.5l-.6-1.2c-.3-.6-.5-1.3-.5-2v-.8c0-1.2.5-2.3,1.3-3.1l.3-.3c.6-.6,1.5-1,2.3-1s1.7.3,2.3,1h.1c0,.1,1.2.1,1.2.1.5,0,1,.1,1.5.4l.5.3c.9.4,1.5,1.2,1.7,2.2l.2.6,1.3.5c1.1.4,1.8,1.6,1.6,2.8-.1.6-.4,1.1-.9,1.5l-1.3,1v1c0,1.1-.6,2.1-1.6,2.6l-.7.4-.6,1.1c-.3.7-.9,1.2-1.7,1.4l-1.9.6v1.6c0,.3-.1.5-.3.6-.1,0-.2.1-.4.1ZM78.5,43.6c-.5,0-1,.2-1.3.5l-.3.3c-.6.6-.9,1.3-.9,2.1v.8c0,.5.1.9.3,1.3l.7,1.4c0,.1,0,.2,0,.3,0,.6.4,1.2,1,1.3h.6c.2.2.3.3.4.5,0,.2.1.4,0,.5l-1,3.8c0,.3,0,.5,0,.8v.3c0,.7.3,1.4.7,2v-.7c0-.3.2-.6.5-.7l2.4-.8c.4-.1.7-.4.8-.7l.7-1.4c0-.1.2-.3.3-.3l1-.5c.5-.2.8-.7.8-1.3v-1.4c0-.2.1-.4.3-.6l1.6-1.2c.2-.2.3-.4.4-.6,0-.5-.2-1-.6-1.1l-1.7-.6c-.2,0-.4-.3-.5-.5l-.2-1c-.1-.5-.5-1-1-1.2l-.5-.3c-.3-.1-.5-.2-.8-.2h-1.5c-.2,0-.4,0-.5-.2l-.3-.3c-.4-.4-.8-.5-1.3-.5Z"/>
        </g>
        <path class="cls-5" d="M92.8,42.4c-.2,0-.5-.1-.6-.3-.2-.3-.1-.8.2-1,2.1-1.3,3.3-3.6,3.3-6.1,0-4-3.3-7.2-7.2-7.2s-4.7,1.2-6.1,3.3c-.2.3-.7.4-1,.2-.3-.2-.4-.7-.2-1,1.6-2.5,4.3-4,7.3-4,4.8,0,8.7,3.9,8.7,8.7s-1.5,5.7-4,7.3c-.1,0-.3.1-.4.1Z"/>
        <path class="cls-5" d="M88.5,24.9c-.4,0-.7-.3-.7-.7v-2.9c0-.4.3-.7.7-.7s.7.3.7.7v2.9c0,.4-.3.7-.7.7Z"/>
        <path class="cls-5" d="M97.9,30.3c-.3,0-.5-.1-.6-.4-.2-.3,0-.8.3-1l2.5-1.4c.3-.2.8,0,1,.3.2.3,0,.8-.3,1l-2.5,1.4c-.1,0-.2,0-.4,0Z"/>
        <path class="cls-5" d="M100.4,42.6c-.1,0-.2,0-.4,0l-2.5-1.4c-.3-.2-.5-.6-.3-1s.6-.5,1-.3l2.5,1.4c.3.2.5.6.3,1-.1.2-.4.4-.6.4Z"/>
        <path class="cls-5" d="M93.9,26.3c-.1,0-.2,0-.4,0-.3-.2-.5-.6-.3-1l2.2-3.8c.2-.3.6-.5,1-.3s.5.6.3,1l-2.2,3.8c-.1.2-.4.4-.6.4Z"/>
        <path class="cls-5" d="M83.1,26.3c-.2,0-.5-.1-.6-.3l-1.8-2.9c-.2-.3-.1-.8.2-1,.3-.2.8-.1,1,.2l1.8,2.9c.2.3.1.8-.2,1-.1,0-.3.1-.4.1Z"/>
        <path class="cls-5" d="M102.3,35.8h-2.9c-.4,0-.7-.3-.7-.7s.3-.7.7-.7h2.9c.4,0,.7.3.7.7s-.3.7-.7.7Z"/>
      </g>
      <g class="cls-10">
        <path class="cls-8" d="M73.8,132.6c-.7-1.3-1.9-2-2.9-1.6-.7.2-6.2,2.8-8.4,3.9,0-.3-.2-.6-.3-.9-.4-.7-1-1.2-1.8-1.4-.2,0-5.7-1.5-8.6-1.5s-1.7.6-3.2,1.4c-.4.2-.9.5-1,.6-.3,0-1.2.2-1.9.2-.3-.9-1.1-1.5-2.1-1.5h-3c-1.2,0-2.2,1-2.2,2.2v7.6c0,1.2,1,2.2,2.2,2.2h3c1.2,0,2.2-1,2.2-2.2h2c.6,0,5.7,1.7,7.8,2.4,1.3.4,1.9.6,2,.6.2,0,.7,0,1.2,0,1,0,2.4-.1,3-.6.8-.5,11-7.8,11.4-8.1.8-.6,1.2-2.2.6-3.5ZM44.4,141.6c0,.5-.4.9-.9.9h-3c-.5,0-.9-.4-.9-.9v-7.6c0-.5.4-.9.9-.9h3c.5,0,.9.4.9.9v7.6ZM72.4,135c-.4.3-10.6,7.6-11.4,8.1-.5.3-2.7.4-3.2.3-.1,0-1-.3-2-.6-5.7-1.8-7.7-2.4-8.2-2.4h-2v-5.8c.7,0,1.8-.2,2.1-.3.3,0,.6-.3,1.4-.7.7-.4,2.1-1.2,2.5-1.2,2.7,0,8.2,1.5,8.2,1.5.4.1.8.4,1,.8.2.4.3.8.1,1.2-.3.9-1.2,1.3-2.1,1.1l-5.2-1.3c-.4,0-.7.1-.8.5,0,.4.1.7.5.8l5.1,1.3c.3,0,.6.1.8.1,1.2,0,2.3-.8,2.7-1.9,3.4-1.6,8.5-4,9-4.2.4-.1,1,.2,1.4.9.4.7,0,1.7-.2,1.8Z"/>
        <path class="cls-8" d="M77.4,112.3h-4c.2-2.1-.5-4.5-2.1-6.5-1.6-2-3.7-3.2-5.9-3.3-3.6-.1-6.2,2-7.3,3.1-1-1.1-3.6-3.2-7.3-3.1-2.2,0-4.3,1.3-5.9,3.3-1.6,2-2.3,4.3-2.1,6.5h-3.9c-.4,0-.7.3-.7.7s.3.7.7.7h4.2c1.3,4.1,6,8.2,6.3,8.3.3.2.7.2.9,0,.2-.3.2-.7,0-.9,0,0-4.4-3.7-5.7-7.3h3.1l2.1,3c.1.2.3.3.5.3h0c.2,0,.4-.1.5-.3l1.6-2.3,1.5,3.1c.1.2.3.4.6.4.2,0,.5-.1.6-.3l3-5.5,3,5.5c.1.2.3.3.6.3h0c.2,0,.5-.1.6-.4l1.5-3.1,1.6,2.3c.1.2.3.3.5.3.2,0,.4-.1.5-.3l2.1-3h3c-1.3,3.6-5.7,7.3-5.7,7.3l-2.3,2.2-5.5,5.4-5.5-5.4c-.3-.3-.7-.2-.9,0-.3.3-.2.7,0,.9l6.4,6.3,6.4-6.3,2.3-2.1c.4-.3,5-4.3,6.2-8.3h4.3c.4,0,.7-.3.7-.7s-.3-.7-.7-.7ZM68.4,112.3c-.2,0-.4.1-.5.3l-1.8,2.5-1.7-2.4c-.1-.2-.4-.3-.6-.3-.2,0-.4.2-.5.4l-1.5,2.9-3-5.5c-.1-.2-.3-.3-.6-.3s-.5.1-.6.3l-3,5.5-1.5-2.9c-.1-.2-.3-.3-.5-.4-.2,0-.5,0-.6.3l-1.7,2.4-1.8-2.5c-.1-.2-.3-.3-.5-.3h-3.7c-.2-1.8.4-4,1.8-5.7,1.3-1.7,3.1-2.7,4.9-2.8,4-.1,6.7,3.1,6.7,3.2l.5.6.5-.6s2.7-3.3,6.7-3.2c1.8,0,3.6,1.1,4.9,2.8,1.4,1.7,2,3.9,1.8,5.7h-3.7Z"/>
      </g>
      <g class="cls-10">
        <path class="cls-5" d="M127.9,102.6c-2.5-2.7-5.8-4.3-9.4-4.7-.2-.7-.8-1.2-1.6-1.2s-1.7.7-1.7,1.7.7,1.7,1.7,1.7,1.3-.4,1.5-1c3.3.3,6.4,1.9,8.7,4.4,2.3,2.5,3.6,5.8,3.6,9.3s.2.5.5.5.5-.2.5-.5c0-3.7-1.4-7.3-3.9-10ZM117,98.9c-.3,0-.6-.3-.6-.6s.3-.6.6-.6.6.3.6.6-.3.6-.6.6Z"/>
        <path class="cls-5" d="M117,125.2c-.7,0-1.3.4-1.5,1.1-6.9-.8-12.1-6.6-12.1-13.6s-.2-.5-.5-.5-.5.2-.5.5c0,7.6,5.6,13.9,13.2,14.7.2.7.8,1.2,1.6,1.2s1.7-.7,1.7-1.7-.7-1.7-1.7-1.7ZM117,127.4c-.3,0-.6-.3-.6-.6s.3-.6.6-.6.6.3.6.6-.3.6-.6.6Z"/>
        <path class="cls-5" d="M132,117.8h-1.7c-.4,0-.7.3-.7.7v8.7h-1v-5.9c0-.4-.3-.7-.7-.7h-1.7c-.4,0-.7.3-.7.7v5.9h-1v-4c0-.4-.3-.7-.7-.7h-1.7c-.4,0-.7.3-.7.7v5.1h11.5v-9.7c0-.4-.3-.7-.7-.7ZM122.3,127.2v-3.7h1v3.7h-1ZM126.5,127.2v-5.5h1v5.5h-1ZM130.7,127.2v-8.3h1v8.3h-1Z"/>
        <g>
          <path class="cls-5" d="M121.2,121.1h-1.1c-.5,0-.9-.4-.9-.9v-.2h-.1c-.4.5-1,.5-1.3.1l-.8-.8c-.4-.4-.4-1,0-1.3h.1c0-.1-.2-.1-.2-.1-.5,0-.9-.4-.9-.9v-1.1c0-.5.4-.9.9-.9h.2-.1c-.4-.5-.4-1.1,0-1.5l.8-.8c.4-.4,1-.4,1.3,0h.1c0,.1,0,0,0,0,0-.5.4-.9.9-.9h1.1c.5,0,.9.4.9.9v.2h.1c.4-.5,1-.5,1.3-.1l.8.8c.4.4.4,1,0,1.3h-.1c0,.1.2.1.2.1.5,0,.9.4.9.9v1.1c0,.5-.4.9-.9.9h-.2.1c.4.5.4,1.1,0,1.5l-.8.8c-.2.2-.4.3-.7.3h0c-.3,0-.5-.1-.7-.3h-.1c0-.1,0,0,0,0,0,.5-.4.9-.9.9ZM120.6,115.6c-.3,0-.6.3-.6.6s.3.6.6.6.6-.3.6-.6-.3-.6-.6-.6Z"/>
          <path class="cls-3" d="M124.4,116.9v-1.1h-1.5c0-.2-.1-.5-.3-.7l1-1-.8-.8-1,1c-.2-.1-.5-.3-.7-.3v-1.4h-1.1v1.4c-.3,0-.5.2-.7.3l-1-1-.8.8,1,1c-.1.2-.2.5-.3.7h-1.5v1.1h1.5c0,.2.2.4.3.6l-1.1,1.1.8.8,1.1-1.1c.2.1.4.2.6.2v1.6h1.1v-1.6c.2,0,.4-.1.6-.2l1.1,1.1.8-.8-1.1-1.1c.1-.2.2-.4.3-.6h1.6ZM120.6,117.8c-.9,0-1.6-.7-1.6-1.6s.7-1.6,1.6-1.6,1.6.7,1.6,1.6-.7,1.6-1.6,1.6Z"/>
        </g>
        <g>
          <circle class="cls-5" cx="114.3" cy="107.8" r=".8"/>
          <circle class="cls-5" cx="114.3" cy="112.1" r=".8"/>
          <circle class="cls-5" cx="114.3" cy="116.3" r=".8"/>
          <path class="cls-5" d="M117.4,118h-4.9v-3.5h4.8v-.8h-4.8v-3.4h7.8v1.7h.8c0,.1,0-6.1,0-6.1,0-.4-.4-.8-.8-.8h-7.8c-.4,0-.8.4-.8.8v12c0,.4.4.8.8.8h4.9v-.8ZM112.5,106h7.8v3.5h-7.8v-3.5Z"/>
        </g>
        <g>
          <path class="cls-5" d="M109.8,108.7h-10.4v-9.1c0-.3-.2-.5-.5-.5s-.5.2-.5.5v9.6c0,.3.2.5.5.5h10.8c.3,0,.5-.2.5-.5s-.2-.5-.5-.5Z"/>
          <path class="cls-5" d="M108.7,99.7c-.7,0-1.3.6-1.3,1.3s0,.5.2.7l-.8,1.1c-.5-.1-1,0-1.3.4l-.7-.2c0-.6-.6-1.1-1.3-1.1s-1.3.6-1.3,1.3,0,.6.3.8l-.8,1.4c0,0-.1,0-.2,0-.7,0-1.3.6-1.3,1.3s.6,1.3,1.3,1.3,1.3-.6,1.3-1.3,0-.6-.3-.8l.8-1.4c.5,0,1-.1,1.3-.5l.7.2c0,.7.6,1.2,1.3,1.2s1.3-.6,1.3-1.3,0-.5-.2-.7l.8-1.1c.1,0,.2,0,.3,0,.7,0,1.3-.6,1.3-1.3s-.6-1.3-1.3-1.3ZM106.5,103.7c.2,0,.3.2.3.3s-.2.3-.3.3-.3-.2-.3-.3.2-.3.3-.3ZM108.7,100.6c.2,0,.3.2.3.3s-.2.3-.3.3-.3-.2-.3-.3.2-.3.3-.3ZM103.5,102.8c.2,0,.3.2.3.3s-.2.3-.3.3-.3-.2-.3-.3.2-.3.3-.3ZM101.4,106.2c.2,0,.3.2.3.3s-.2.3-.3.3-.3-.2-.3-.3.2-.3.3-.3Z"/>
        </g>
      </g>
    </g>
    <g>
      <path class="cls-5" d="M49,92.7c-.7.4-2.3.7-4.5.7-6,0-9.1-3.7-9.1-8.7s4.2-9.2,9.5-9.2,3.6.4,4.3.8l-.8,3.1c-.8-.3-1.9-.6-3.3-.6-3.1,0-5.5,1.9-5.5,5.7s2.1,5.7,5.6,5.7,2.5-.3,3.3-.6l.6,3.1Z"/>
      <path class="cls-5" d="M55.6,75.8v6.7h6.5v-6.7h3.9v17.4h-3.9v-7.3h-6.5v7.3h-3.9v-17.4h3.9Z"/>
      <path class="cls-5" d="M85.3,84.3c0,5.7-3.5,9.1-8.5,9.1s-8.2-3.9-8.2-8.8,3.3-9.1,8.4-9.1,8.2,4,8.2,8.8ZM72.7,84.5c0,3.4,1.6,5.8,4.2,5.8s4.2-2.5,4.2-5.9-1.5-5.8-4.2-5.8-4.2,2.5-4.2,5.9Z"/>
      <path class="cls-5" d="M87.8,76c1.3-.2,3.1-.4,5.2-.4s4.4.4,5.6,1.4c1,.8,1.6,2,1.6,3.6s-1.6,3.7-3.1,4.3h0c1.2.6,1.9,1.7,2.3,3.3.5,2,1.1,4.2,1.4,4.9h-4c-.3-.5-.7-1.9-1.2-4-.5-2.2-1.2-2.8-2.8-2.8h-1.2v6.8h-3.9v-17.1ZM91.7,83.5h1.5c2,0,3.1-1,3.1-2.5s-1.1-2.4-2.9-2.4c-1,0-1.5,0-1.8.1v4.8Z"/>
      <path class="cls-5" d="M103.1,76c1.4-.2,3.3-.4,5.3-.4,3.3,0,5.4.6,7.1,1.9,1.8,1.3,2.9,3.5,2.9,6.5s-1.2,5.6-2.9,7c-1.8,1.5-4.6,2.2-8,2.2s-3.5-.1-4.5-.3v-17.1ZM107,90.2c.3,0,.9,0,1.4,0,3.6,0,5.9-1.9,5.9-6.1,0-3.6-2.1-5.5-5.5-5.5s-1.4,0-1.8.2v11.4Z"/>
      <path class="cls-5" d="M121.2,89.1c1.1.5,2.7,1.1,4.4,1.1s2.8-.7,2.8-1.9-.8-1.7-2.9-2.4c-2.9-1-4.8-2.6-4.8-5.1s2.5-5.2,6.6-5.2,3.4.4,4.4.9l-.9,3.2c-.7-.3-1.9-.8-3.6-.8s-2.5.8-2.5,1.7,1,1.6,3.2,2.4c3.1,1.1,4.5,2.7,4.5,5.2s-2.2,5.4-7,5.4-3.9-.5-4.9-1.1l.8-3.2Z"/>
    </g>
  </g>
</svg>